Coordinates
version=1
nRows=21
nColumns=22
inDegrees=yes

Units are S.I. units (second, meters, Newtons, ...)
If the header above contains a line with 'inDegrees', this indicates whether rotational values are in degrees (yes) or radians (no).

endheader
time	pelvis_tilt	pelvis_list	pelvis_rotation	pelvis_tx	pelvis_ty	pelvis_tz	hip_flexion_r	hip_adduction_r	hip_rotation_r	knee_angle_r	ankle_angle_r	subtalar_angle_r	hip_flexion_l	hip_adduction_l	hip_rotation_l	knee_angle_l	ankle_angle_l	subtalar_angle_l	lumbar_extension	lumbar_bending	lumbar_rotation
      0.01000000	     -6.40888403	      2.54983854	    187.98447856	      0.07969312	      0.95451264	      1.18836086	     -6.45337198	      5.43377751	    -12.61355858	     -7.13993518	      8.97570132	      1.62247397	     -2.92064251	     -4.55722326	    -10.96857256	    -15.98076121	     21.39677860	     -9.29297813	    -11.98318935	      4.36393112	     -8.92354888
      0.02000000	     -6.41845182	      2.54993738	    187.97757439	      0.07966562	      0.95450669	      1.18835875	     -6.45938334	      5.43197682	    -12.60641707	     -7.15171772	      8.98207063	      1.62880643	     -2.90910236	     -4.55840176	    -10.94567216	    -16.02791793	     21.41723238	     -9.29455663	    -11.99564422	      4.36631833	     -8.90621822
      0.03000000	     -6.42271978	      2.57574926	    187.97891522	      0.07962810	      0.95446049	      1.18835244	     -6.45248278	      5.45780246	    -12.60140627	     -7.17239866	      9.01856047	      1.65088627	     -2.85827956	     -4.59440292	    -10.92691299	    -16.13422043	     21.52947854	     -9.32021662	    -11.99622037	      4.39827584	     -8.89965228
      0.04000000	     -6.41594795	      2.60530209	    187.98103227	      0.07960670	      0.95438990	      1.18834457	     -6.42513085	      5.48428694	    -12.59315931	     -7.20715370	      9.04910511	      1.67217395	     -2.76956408	     -4.63210520	    -10.87772884	    -16.28607151	     21.64915807	     -9.36922264	    -11.98795414	      4.43400781	     -8.88615262
      0.05000000	     -6.40873701	      2.64215699	    187.98622640	      0.07959026	      0.95430244	      1.18833430	     -6.39095761	      5.51780930	    -12.58366736	     -7.25224762	      9.09185193	      1.69408489	     -2.65157112	     -4.67745663	    -10.79569273	    -16.48984158	     21.79636921	     -9.43833039	    -11.98296341	      4.47722135	     -8.86666558
      0.06000000	     -6.35149062	      2.69382875	    187.99786869	      0.07959489	      0.95412047	      1.18832563	     -6.28245599	      5.55683813	    -12.59048341	     -7.33050465	      9.12081473	      1.73397939	     -2.42899467	     -4.73281973	    -10.67587450	    -16.78145345	     21.98356814	     -9.61742130	    -11.92098039	      4.53061323	     -8.83974812
      0.07000000	     -6.32296249	      2.76148632	    188.01951324	      0.07959651	      0.95395386	      1.18832381	     -6.20550799	      5.61909839	    -12.58813810	     -7.40572331	      9.18163896	      1.77490246	     -2.20409843	     -4.80819877	    -10.51049618	    -17.13079523	     22.22112696	     -9.80259552	    -11.89622953	      4.60657556	     -8.81312278
      0.08000000	     -6.29409954	      2.84324525	    188.05236204	      0.07958601	      0.95375744	      1.18834034	     -6.13154861	      5.69820884	    -12.59466135	     -7.47183939	      9.25295682	      1.82102996	     -1.93598697	     -4.89743273	    -10.30460820	    -17.55680501	     22.50779233	    -10.01798629	    -11.87178280	      4.69998350	     -8.77507092
      0.09000000	     -6.24805184	      2.95103780	    188.09053298	      0.07961615	      0.95350786	      1.18836665	     -6.00990458	      5.79826172	    -12.58805880	     -7.58537759	      9.33147352	      1.88281276	     -1.60713096	     -5.00407670	    -10.02598902	    -18.04757508	     22.81215983	    -10.33513082	    -11.83710752	      4.82393297	     -8.74667619
      0.10000000	     -6.20066422	      3.07566850	    188.14147688	      0.07961496	      0.95322625	      1.18842336	     -5.89611560	      5.91864016	    -12.59616313	     -7.67926804	      9.44109115	      1.95819091	     -1.24553896	     -5.12058923	     -9.68634320	    -18.59176066	     23.13930230	    -10.73514478	    -11.79915804	      4.96610641	     -8.69114999
      0.11000000	     -6.16523672	      3.21491204	    188.20117985	      0.07961561	      0.95292975	      1.18851374	     -5.78388198	      6.05381485	    -12.60705537	     -7.79329401	      9.53421664	      2.03580365	     -0.86708702	     -5.24681080	     -9.31039878	    -19.18435383	     23.50865161	    -11.16488096	    -11.78199951	      5.13002992	     -8.64689304
      0.12000000	     -6.13547164	      3.36894979	    188.27156677	      0.07958627	      0.95260975	      1.18863882	     -5.67840004	      6.20567145	    -12.62977848	     -7.90592010	      9.64689641	      2.12180508	     -0.47689300	     -5.38019896	     -8.88931587	    -19.80650078	     23.89984506	    -11.64975570	    -11.77321388	      5.31089053	     -8.59280016
      0.13000000	     -6.10374874	      3.53263975	    188.34526605	      0.07951838	      0.95226660	      1.18881703	     -5.56855263	      6.36354197	    -12.66293857	     -8.02611205	      9.77923454	      2.22055189	     -0.08570197	     -5.50817125	     -8.42660766	    -20.42483802	     24.28055231	    -12.21899902	    -11.76203415	      5.50560854	     -8.51662830
      0.14000000	     -6.09198835	      3.69975048	    188.41908519	      0.07940038	      0.95193787	      1.18902568	     -5.47889474	      6.52657993	    -12.69935426	     -8.15495908	      9.91699448	      2.31902090	      0.27025371	     -5.63258902	     -7.95547517	    -21.02129241	     24.65825035	    -12.78601818	    -11.77487425	      5.70262054	     -8.43458680
      0.15000000	     -6.08817926	      3.86414833	    188.48936475	      0.07920602	      0.95161310	      1.18928453	     -5.40098687	      6.68281862	    -12.74416116	     -8.28838696	     10.06988113	      2.41984709	      0.59126752	     -5.74510502	     -7.48597068	    -21.57976405	     25.01784687	    -13.36537923	    -11.79373206	      5.89814903	     -8.33452037
      0.16000000	     -6.09540199	      4.02145170	    188.55214698	      0.07893809	      0.95130526	      1.18956658	     -5.33539011	      6.83004849	    -12.79287374	     -8.43286622	     10.22643261	      2.51667334	      0.86345478	     -5.84597992	     -7.03795614	    -22.08204236	     25.35803756	    -13.91869742	    -11.82622493	      6.07933092	     -8.22734923
      0.17000000	     -6.11305894	      4.16306814	    188.60685497	      0.07857197	      0.95102462	      1.18989512	     -5.28685842	      6.95745169	    -12.84300992	     -8.58356173	     10.39278823	      2.60667351	      1.07843565	     -5.92790108	     -6.62688287	    -22.51861230	     25.66860298	    -14.42573923	    -11.86531578	      6.24295304	     -8.10855401
      0.18000000	     -6.14120982	      4.28598018	    188.65135046	      0.07810939	      0.95077756	      1.19025749	     -5.25245730	      7.06205752	    -12.89024659	     -8.74843317	     10.56190497	      2.68309290	      1.23192358	     -5.99247072	     -6.26778402	    -22.88292541	     25.95250646	    -14.84524363	    -11.91436254	      6.38127810	     -7.99490037
      0.19000000	     -6.16706193	      4.38695226	    188.68527864	      0.07753657	      0.95055520	      1.19065084	     -5.22143263	      7.13941859	    -12.93895679	     -8.92266716	     10.73822748	      2.75099642	      1.33269897	     -6.03413303	     -5.95259960	    -23.16791882	     26.19531475	    -15.21139377	    -11.95454640	      6.48747593	     -7.87585276
      0.20000000	     -6.21534746	      4.46205449	    188.71053409	      0.07684501	      0.95038930	      1.19106768	     -5.23001367	      7.19209583	    -12.97027013	     -9.09040238	     10.93261346	      2.78877455	      1.35829055	     -6.06380964	     -5.72033572	    -23.38480018	     26.41492529	    -15.36104339	    -12.01719445	      6.55927828	     -7.76120579
      0.21000000	     -6.20962378	      4.51297082	    188.73809429	      0.07609720	      0.95018546	      1.19156322	     -5.15629260	      7.19988162	    -13.03282783	     -9.32126955	     11.10409046	      2.84354753	      1.39620985	     -6.04961147	     -5.47178969	    -23.52528656	     26.57591414	    -15.66575909	    -12.01487812	      6.59937130	     -7.68334176
